<svg xmlns="http://www.w3.org/2000/svg" viewBox="0, 0, 762.92, 2109.45" font-family="ui-monospace, SFMono-Regular, SF Mono, Menlo, Consolas, Liberation Mono, monospace" font-size="14"><g fill="#D3D3D3"><rect x="0" y="0" width="762.92" height="2109.45" fill="rgb(22, 27, 34)"/><rect x="16" y="16" width="294.05" height="17" fill="rgb(3, 58, 22)" opacity="1"/><text x="16" y="28.55" fill="rgb(175, 245, 180)">.tryingOutAvatarDecoration_f526bf {</text><rect x="49.61" y="33" width="193.23" height="17" fill="rgb(3, 58, 22)" opacity="1"/><text x="49.61" y="45.55" fill="rgb(175, 245, 180)">    position: absolute;</text><rect x="49.61" y="50" width="117.62" height="17" fill="rgb(3, 58, 22)" opacity="1"/><text x="49.61" y="62.55" fill="rgb(175, 245, 180)">    bottom: 0;</text><rect x="32.8" y="67" width="25.2" height="17" fill="rgb(3, 58, 22)" opacity="1"/><text x="32.8" y="79.55" fill="rgb(175, 245, 180)">  }</text><rect x="16" y="84" width="260.44" height="17" fill="rgb(3, 58, 22)" opacity="1"/><text x="16" y="96.55" fill="rgb(175, 245, 180)">.previewTitleContainer__89aa4 {</text><rect x="49.61" y="101" width="142.82" height="17" fill="rgb(3, 58, 22)" opacity="1"/><text x="49.61" y="113.55" fill="rgb(175, 245, 180)">    height: 40px;</text><rect x="49.61" y="118" width="151.22" height="17" fill="rgb(3, 58, 22)" opacity="1"/><text x="49.61" y="130.55" fill="rgb(175, 245, 180)">    display: flex;</text><rect x="49.61" y="135" width="294.05" height="17" fill="rgb(3, 58, 22)" opacity="1"/><text x="49.61" y="147.55" fill="rgb(175, 245, 180)">    justify-content: space-between;</text><rect x="49.61" y="152" width="201.63" height="17" fill="rgb(3, 58, 22)" opacity="1"/><text x="49.61" y="164.55" fill="rgb(175, 245, 180)">    align-items: center;</text><rect x="32.8" y="169" width="25.2" height="17" fill="rgb(3, 58, 22)" opacity="1"/><text x="32.8" y="181.55" fill="rgb(175, 245, 180)">  }</text><rect x="16" y="186" width="184.83" height="17" fill="rgb(3, 58, 22)" opacity="1"/><text x="16" y="198.55" fill="rgb(175, 245, 180)">.previewTitle_bb7c50 {</text><rect x="49.61" y="203" width="176.43" height="17" fill="rgb(3, 58, 22)" opacity="1"/><text x="49.61" y="215.55" fill="rgb(175, 245, 180)">    margin-bottom: 0;</text><rect x="32.8" y="220" width="25.2" height="17" fill="rgb(3, 58, 22)" opacity="1"/><text x="32.8" y="232.55" fill="rgb(175, 245, 180)">  }</text><text x="16" y="249.55">.heading__1a617 {</text><text x="49.61" y="266.55">    display: inline-flex;</text><text x="49.61" y="283.55">    align-items: center;</text><text x="49.61" y="300.55">    white-space: </text><rect x="158.82" y="288" width="67.21" height="17" fill="rgb(3, 58, 22)" opacity="1"/><text x="158.82" y="300.55" fill="rgb(175, 245, 180)">pre-wrap</text><text x="226.03" y="300.55">;</text><text x="32.8" y="317.55">  }</text><rect x="16" y="322" width="151.22" height="17" fill="rgb(3, 58, 22)" opacity="1"/><text x="16" y="334.55" fill="rgb(175, 245, 180)">.shopLogo_f8bf08 {</text><rect x="49.61" y="339" width="151.22" height="17" fill="rgb(3, 58, 22)" opacity="1"/><text x="49.61" y="351.55" fill="rgb(175, 245, 180)">    display: flex;</text><rect x="49.61" y="356" width="109.22" height="17" fill="rgb(3, 58, 22)" opacity="1"/><text x="49.61" y="368.55" fill="rgb(175, 245, 180)">    gap: 8px;</text><rect x="49.61" y="373" width="201.63" height="17" fill="rgb(3, 58, 22)" opacity="1"/><text x="49.61" y="385.55" fill="rgb(175, 245, 180)">    align-items: center;</text><rect x="32.8" y="390" width="25.2" height="17" fill="rgb(3, 58, 22)" opacity="1"/><text x="32.8" y="402.55" fill="rgb(175, 245, 180)">  }</text><rect x="16" y="407" width="184.83" height="17" fill="rgb(3, 58, 22)" opacity="1"/><text x="16" y="419.55" fill="rgb(175, 245, 180)">.shopLogoText_b52465 {</text><rect x="49.61" y="424" width="193.23" height="17" fill="rgb(3, 58, 22)" opacity="1"/><text x="49.61" y="436.55" fill="rgb(175, 245, 180)">    margin-bottom: 2px;</text><rect x="32.8" y="441" width="25.2" height="17" fill="rgb(3, 58, 22)" opacity="1"/><text x="32.8" y="453.55" fill="rgb(175, 245, 180)">  }</text><rect x="16" y="458" width="168.03" height="17" fill="rgb(3, 58, 22)" opacity="1"/><text x="16" y="470.55" fill="rgb(175, 245, 180)">.heroBanner_d3ffc9 {</text><rect x="49.61" y="475" width="193.23" height="17" fill="rgb(3, 58, 22)" opacity="1"/><text x="49.61" y="487.55" fill="rgb(175, 245, 180)">    position: relative;</text><rect x="49.61" y="492" width="134.42" height="17" fill="rgb(3, 58, 22)" opacity="1"/><text x="49.61" y="504.55" fill="rgb(175, 245, 180)">    width: 100%;</text><rect x="49.61" y="509" width="176.43" height="17" fill="rgb(3, 58, 22)" opacity="1"/><text x="49.61" y="521.55" fill="rgb(175, 245, 180)">    min-width: 597px;</text><rect x="49.61" y="526" width="151.22" height="17" fill="rgb(3, 58, 22)" opacity="1"/><text x="49.61" y="538.55" fill="rgb(175, 245, 180)">    height: 300px;</text><rect x="49.61" y="543" width="730.92" height="17" fill="rgb(3, 58, 22)" opacity="1"/><text x="49.61" y="555.55" fill="rgb(175, 245, 180)">    background: center/cover no-repeat url(/assets/e67f00e8b56d263737a6.jpg),lightgray;</text><rect x="49.61" y="560" width="176.43" height="17" fill="rgb(3, 58, 22)" opacity="1"/><text x="49.61" y="572.55" fill="rgb(175, 245, 180)">    margin-top: 24px;</text><rect x="49.61" y="577" width="201.63" height="17" fill="rgb(3, 58, 22)" opacity="1"/><text x="49.61" y="589.55" fill="rgb(175, 245, 180)">    border-radius: 32px;</text><rect x="49.61" y="594" width="176.43" height="17" fill="rgb(3, 58, 22)" opacity="1"/><text x="49.61" y="606.55" fill="rgb(175, 245, 180)">    overflow: hidden;</text><rect x="32.8" y="611" width="25.2" height="17" fill="rgb(3, 58, 22)" opacity="1"/><text x="32.8" y="623.55" fill="rgb(175, 245, 180)">  }</text><rect x="16" y="628" width="159.63" height="17" fill="rgb(3, 58, 22)" opacity="1"/><text x="16" y="640.55" fill="rgb(175, 245, 180)">.bannerArt__63594 {</text><rect x="49.61" y="645" width="193.23" height="17" fill="rgb(3, 58, 22)" opacity="1"/><text x="49.61" y="657.55" fill="rgb(175, 245, 180)">    position: absolute;</text><rect x="49.61" y="662" width="92.42" height="17" fill="rgb(3, 58, 22)" opacity="1"/><text x="49.61" y="674.55" fill="rgb(175, 245, 180)">    top: 0;</text><rect x="49.61" y="679" width="134.42" height="17" fill="rgb(3, 58, 22)" opacity="1"/><text x="49.61" y="691.55" fill="rgb(175, 245, 180)">    left: 510px;</text><rect x="32.8" y="696" width="25.2" height="17" fill="rgb(3, 58, 22)" opacity="1"/><text x="32.8" y="708.55" fill="rgb(175, 245, 180)">  }</text><rect x="16" y="713" width="168.03" height="17" fill="rgb(3, 58, 22)" opacity="1"/><text x="16" y="725.55" fill="rgb(175, 245, 180)">.bannerGrid_c6a4a0 {</text><rect x="49.61" y="730" width="193.23" height="17" fill="rgb(3, 58, 22)" opacity="1"/><text x="49.61" y="742.55" fill="rgb(175, 245, 180)">    position: absolute;</text><rect x="49.61" y="747" width="126.02" height="17" fill="rgb(3, 58, 22)" opacity="1"/><text x="49.61" y="759.55" fill="rgb(175, 245, 180)">    top: -77px;</text><rect x="49.61" y="764" width="100.82" height="17" fill="rgb(3, 58, 22)" opacity="1"/><text x="49.61" y="776.55" fill="rgb(175, 245, 180)">    left: 0;</text><rect x="49.61" y="781" width="142.82" height="17" fill="rgb(3, 58, 22)" opacity="1"/><text x="49.61" y="793.55" fill="rgb(175, 245, 180)">    width: 402px;</text><rect x="49.61" y="798" width="151.22" height="17" fill="rgb(3, 58, 22)" opacity="1"/><text x="49.61" y="810.55" fill="rgb(175, 245, 180)">    height: 484px;</text><rect x="32.8" y="815" width="25.2" height="17" fill="rgb(3, 58, 22)" opacity="1"/><text x="32.8" y="827.55" fill="rgb(175, 245, 180)">  }</text><rect x="16" y="832" width="201.63" height="17" fill="rgb(3, 58, 22)" opacity="1"/><text x="16" y="844.55" fill="rgb(175, 245, 180)">.bannerGridSmol_af8290 {</text><rect x="49.61" y="849" width="193.23" height="17" fill="rgb(3, 58, 22)" opacity="1"/><text x="49.61" y="861.55" fill="rgb(175, 245, 180)">    position: absolute;</text><rect x="49.61" y="866" width="134.42" height="17" fill="rgb(3, 58, 22)" opacity="1"/><text x="49.61" y="878.55" fill="rgb(175, 245, 180)">    left: 452px;</text><rect x="49.61" y="883" width="126.02" height="17" fill="rgb(3, 58, 22)" opacity="1"/><text x="49.61" y="895.55" fill="rgb(175, 245, 180)">    top: 116px;</text><rect x="49.61" y="900" width="134.42" height="17" fill="rgb(3, 58, 22)" opacity="1"/><text x="49.61" y="912.55" fill="rgb(175, 245, 180)">    width: 85px;</text><rect x="49.61" y="917" width="142.82" height="17" fill="rgb(3, 58, 22)" opacity="1"/><text x="49.61" y="929.55" fill="rgb(175, 245, 180)">    height: 60px;</text><rect x="32.8" y="934" width="25.2" height="17" fill="rgb(3, 58, 22)" opacity="1"/><text x="32.8" y="946.55" fill="rgb(175, 245, 180)">  }</text><rect x="16" y="951" width="218.44" height="17" fill="rgb(3, 58, 22)" opacity="1"/><text x="16" y="963.55" fill="rgb(175, 245, 180)">.bannerGridMedium__86b6f {</text><rect x="49.61" y="968" width="193.23" height="17" fill="rgb(3, 58, 22)" opacity="1"/><text x="49.61" y="980.55" fill="rgb(175, 245, 180)">    position: absolute;</text><rect x="49.61" y="985" width="134.42" height="17" fill="rgb(3, 58, 22)" opacity="1"/><text x="49.61" y="997.55" fill="rgb(175, 245, 180)">    left: 405px;</text><rect x="49.61" y="1002" width="126.02" height="17" fill="rgb(3, 58, 22)" opacity="1"/><text x="49.61" y="1014.55" fill="rgb(175, 245, 180)">    top: 206px;</text><rect x="49.61" y="1019" width="142.82" height="17" fill="rgb(3, 58, 22)" opacity="1"/><text x="49.61" y="1031.55" fill="rgb(175, 245, 180)">    width: 178px;</text><rect x="49.61" y="1036" width="151.22" height="17" fill="rgb(3, 58, 22)" opacity="1"/><text x="49.61" y="1048.55" fill="rgb(175, 245, 180)">    height: 106px;</text><rect x="32.8" y="1053" width="25.2" height="17" fill="rgb(3, 58, 22)" opacity="1"/><text x="32.8" y="1065.55" fill="rgb(175, 245, 180)">  }</text><rect x="16" y="1070" width="168.03" height="17" fill="rgb(3, 58, 22)" opacity="1"/><text x="16" y="1082.55" fill="rgb(175, 245, 180)">.bannerHand__22b18 {</text><rect x="49.61" y="1087" width="193.23" height="17" fill="rgb(3, 58, 22)" opacity="1"/><text x="49.61" y="1099.55" fill="rgb(175, 245, 180)">    position: absolute;</text><rect x="49.61" y="1104" width="117.62" height="17" fill="rgb(3, 58, 22)" opacity="1"/><text x="49.61" y="1116.55" fill="rgb(175, 245, 180)">    top: 27px;</text><rect x="49.61" y="1121" width="134.42" height="17" fill="rgb(3, 58, 22)" opacity="1"/><text x="49.61" y="1133.55" fill="rgb(175, 245, 180)">    left: 264px;</text><rect x="49.61" y="1138" width="142.82" height="17" fill="rgb(3, 58, 22)" opacity="1"/><text x="49.61" y="1150.55" fill="rgb(175, 245, 180)">    width: 265px;</text><rect x="49.61" y="1155" width="151.22" height="17" fill="rgb(3, 58, 22)" opacity="1"/><text x="49.61" y="1167.55" fill="rgb(175, 245, 180)">    height: 238px;</text><rect x="32.8" y="1172" width="25.2" height="17" fill="rgb(3, 58, 22)" opacity="1"/><text x="32.8" y="1184.55" fill="rgb(175, 245, 180)">  }</text><rect x="16" y="1189" width="210.03" height="17" fill="rgb(3, 58, 22)" opacity="1"/><text x="16" y="1201.55" fill="rgb(175, 245, 180)">.heroDescription__4f6a2 {</text><rect x="49.61" y="1206" width="184.83" height="17" fill="rgb(3, 58, 22)" opacity="1"/><text x="49.61" y="1218.55" fill="rgb(175, 245, 180)">    margin-left: 58px;</text><rect x="49.61" y="1223" width="142.82" height="17" fill="rgb(3, 58, 22)" opacity="1"/><text x="49.61" y="1235.55" fill="rgb(175, 245, 180)">    width: 480px;</text><rect x="49.61" y="1240" width="142.82" height="17" fill="rgb(3, 58, 22)" opacity="1"/><text x="49.61" y="1252.55" fill="rgb(175, 245, 180)">    height: 100%;</text><rect x="49.61" y="1257" width="151.22" height="17" fill="rgb(3, 58, 22)" opacity="1"/><text x="49.61" y="1269.55" fill="rgb(175, 245, 180)">    display: flex;</text><rect x="49.61" y="1274" width="226.84" height="17" fill="rgb(3, 58, 22)" opacity="1"/><text x="49.61" y="1286.55" fill="rgb(175, 245, 180)">    flex-direction: column;</text><rect x="49.61" y="1291" width="235.24" height="17" fill="rgb(3, 58, 22)" opacity="1"/><text x="49.61" y="1303.55" fill="rgb(175, 245, 180)">    justify-content: center;</text><rect x="32.8" y="1308" width="25.2" height="17" fill="rgb(3, 58, 22)" opacity="1"/><text x="32.8" y="1320.55" fill="rgb(175, 245, 180)">  }</text><rect x="16" y="1325" width="176.43" height="17" fill="rgb(3, 58, 22)" opacity="1"/><text x="16" y="1337.55" fill="rgb(175, 245, 180)">.bannerTitle_faef60 {</text><rect x="49.61" y="1342" width="310.85" height="17" fill="rgb(3, 58, 22)" opacity="1"/><text x="49.61" y="1354.55" fill="rgb(175, 245, 180)">    font-family: var(--font-primary);</text><rect x="32.8" y="1359" width="25.2" height="17" fill="rgb(3, 58, 22)" opacity="1"/><text x="32.8" y="1371.55" fill="rgb(175, 245, 180)">  }</text><rect x="16" y="1376" width="184.83" height="17" fill="rgb(3, 58, 22)" opacity="1"/><text x="16" y="1388.55" fill="rgb(175, 245, 180)">.heroSubtitle_aefcb1 {</text><rect x="49.61" y="1393" width="176.43" height="17" fill="rgb(3, 58, 22)" opacity="1"/><text x="49.61" y="1405.55" fill="rgb(175, 245, 180)">    margin-top: 16px;</text><rect x="32.8" y="1410" width="25.2" height="17" fill="rgb(3, 58, 22)" opacity="1"/><text x="32.8" y="1422.55" fill="rgb(175, 245, 180)">  }</text><rect x="16" y="1427" width="218.44" height="17" fill="rgb(3, 58, 22)" opacity="1"/><text x="16" y="1439.55" fill="rgb(175, 245, 180)">@media(max-width:1372px) {</text><rect x="49.61" y="1444" width="495.68" height="17" fill="rgb(3, 58, 22)" opacity="1"/><text x="49.61" y="1456.55" fill="rgb(175, 245, 180)">    .heroBannerWithSidebar_e6b2f9 .heroDescription__4f6a2 {</text><rect x="66.41" y="1461" width="201.63" height="17" fill="rgb(3, 58, 22)" opacity="1"/><text x="66.41" y="1473.55" fill="rgb(175, 245, 180)">      margin-left: 36px;</text><rect x="49.61" y="1478" width="42.01" height="17" fill="rgb(3, 58, 22)" opacity="1"/><text x="49.61" y="1490.55" fill="rgb(175, 245, 180)">    }</text><rect x="49.61" y="1495" width="445.27" height="17" fill="rgb(3, 58, 22)" opacity="1"/><text x="49.61" y="1507.55" fill="rgb(175, 245, 180)">    .heroBannerWithSidebar_e6b2f9 .bannerArt__63594 {</text><rect x="66.41" y="1512" width="151.22" height="17" fill="rgb(3, 58, 22)" opacity="1"/><text x="66.41" y="1524.55" fill="rgb(175, 245, 180)">      left: 430px;</text><rect x="49.61" y="1529" width="42.01" height="17" fill="rgb(3, 58, 22)" opacity="1"/><text x="49.61" y="1541.55" fill="rgb(175, 245, 180)">    }</text><rect x="32.8" y="1546" width="25.2" height="17" fill="rgb(3, 58, 22)" opacity="1"/><text x="32.8" y="1558.55" fill="rgb(175, 245, 180)">  }</text><rect x="16" y="1563" width="218.44" height="17" fill="rgb(3, 58, 22)" opacity="1"/><text x="16" y="1575.55" fill="rgb(175, 245, 180)">@media(max-width:1152px) {</text><rect x="49.61" y="1580" width="495.68" height="17" fill="rgb(3, 58, 22)" opacity="1"/><text x="49.61" y="1592.55" fill="rgb(175, 245, 180)">    .heroBannerWithSidebar_e6b2f9 .heroDescription__4f6a2 {</text><rect x="66.41" y="1597" width="201.63" height="17" fill="rgb(3, 58, 22)" opacity="1"/><text x="66.41" y="1609.55" fill="rgb(175, 245, 180)">      margin-left: 36px;</text><rect x="66.41" y="1614" width="159.63" height="17" fill="rgb(3, 58, 22)" opacity="1"/><text x="66.41" y="1626.55" fill="rgb(175, 245, 180)">      width: 280px;</text><rect x="49.61" y="1631" width="42.01" height="17" fill="rgb(3, 58, 22)" opacity="1"/><text x="49.61" y="1643.55" fill="rgb(175, 245, 180)">    }</text><rect x="49.61" y="1648" width="445.27" height="17" fill="rgb(3, 58, 22)" opacity="1"/><text x="49.61" y="1660.55" fill="rgb(175, 245, 180)">    .heroBannerWithSidebar_e6b2f9 .bannerArt__63594 {</text><rect x="66.41" y="1665" width="151.22" height="17" fill="rgb(3, 58, 22)" opacity="1"/><text x="66.41" y="1677.55" fill="rgb(175, 245, 180)">      left: 210px;</text><rect x="49.61" y="1682" width="42.01" height="17" fill="rgb(3, 58, 22)" opacity="1"/><text x="49.61" y="1694.55" fill="rgb(175, 245, 180)">    }</text><rect x="32.8" y="1699" width="25.2" height="17" fill="rgb(3, 58, 22)" opacity="1"/><text x="32.8" y="1711.55" fill="rgb(175, 245, 180)">  }</text><rect x="16" y="1716" width="218.44" height="17" fill="rgb(3, 58, 22)" opacity="1"/><text x="16" y="1728.55" fill="rgb(175, 245, 180)">@media(max-width:1060px) {</text><rect x="49.61" y="1733" width="487.28" height="17" fill="rgb(3, 58, 22)" opacity="1"/><text x="49.61" y="1745.55" fill="rgb(175, 245, 180)">    .heroBannerFullScreen_ee783c .heroDescription__4f6a2 {</text><rect x="66.41" y="1750" width="201.63" height="17" fill="rgb(3, 58, 22)" opacity="1"/><text x="66.41" y="1762.55" fill="rgb(175, 245, 180)">      margin-left: 36px;</text><rect x="49.61" y="1767" width="42.01" height="17" fill="rgb(3, 58, 22)" opacity="1"/><text x="49.61" y="1779.55" fill="rgb(175, 245, 180)">    }</text><rect x="49.61" y="1784" width="436.87" height="17" fill="rgb(3, 58, 22)" opacity="1"/><text x="49.61" y="1796.55" fill="rgb(175, 245, 180)">    .heroBannerFullScreen_ee783c .bannerArt__63594 {</text><rect x="66.41" y="1801" width="151.22" height="17" fill="rgb(3, 58, 22)" opacity="1"/><text x="66.41" y="1813.55" fill="rgb(175, 245, 180)">      left: 430px;</text><rect x="49.61" y="1818" width="42.01" height="17" fill="rgb(3, 58, 22)" opacity="1"/><text x="49.61" y="1830.55" fill="rgb(175, 245, 180)">    }</text><rect x="32.8" y="1835" width="25.2" height="17" fill="rgb(3, 58, 22)" opacity="1"/><text x="32.8" y="1847.55" fill="rgb(175, 245, 180)">  }</text><rect x="16" y="1852" width="252.04" height="17" fill="rgb(3, 58, 22)" opacity="1"/><text x="16" y="1864.55" fill="rgb(175, 245, 180)">.winterCategoryBanner_d13ac3 {</text><rect x="49.61" y="1869" width="268.84" height="17" fill="rgb(3, 58, 22)" opacity="1"/><text x="49.61" y="1881.55" fill="rgb(175, 245, 180)">    background-position: center;</text><rect x="32.8" y="1886" width="25.2" height="17" fill="rgb(3, 58, 22)" opacity="1"/><text x="32.8" y="1898.55" fill="rgb(175, 245, 180)">  }</text><rect x="16" y="1903" width="126.02" height="17" fill="rgb(103, 6, 12)" opacity="1"/><text x="16" y="1915.55" fill="rgb(255, 220, 215)">.price_ed9315 {</text><rect x="49.61" y="1920" width="176.43" height="17" fill="rgb(103, 6, 12)" opacity="1"/><text x="49.61" y="1932.55" fill="rgb(255, 220, 215)">    font-weight: 600;</text><rect x="32.8" y="1937" width="25.2" height="17" fill="rgb(103, 6, 12)" opacity="1"/><text x="32.8" y="1949.55" fill="rgb(255, 220, 215)">  }</text><rect x="16" y="1954" width="151.22" height="17" fill="rgb(103, 6, 12)" opacity="1"/><text x="16" y="1966.55" fill="rgb(255, 220, 215)">.shopLogo__05413 {</text><rect x="49.61" y="1971" width="151.22" height="17" fill="rgb(103, 6, 12)" opacity="1"/><text x="49.61" y="1983.55" fill="rgb(255, 220, 215)">    display: flex;</text><rect x="49.61" y="1988" width="109.22" height="17" fill="rgb(103, 6, 12)" opacity="1"/><text x="49.61" y="2000.55" fill="rgb(255, 220, 215)">    gap: 8px;</text><rect x="49.61" y="2005" width="201.63" height="17" fill="rgb(103, 6, 12)" opacity="1"/><text x="49.61" y="2017.55" fill="rgb(255, 220, 215)">    align-items: center;</text><rect x="32.8" y="2022" width="25.2" height="17" fill="rgb(103, 6, 12)" opacity="1"/><text x="32.8" y="2034.55" fill="rgb(255, 220, 215)">  }</text><rect x="16" y="2039" width="184.83" height="17" fill="rgb(103, 6, 12)" opacity="1"/><text x="16" y="2051.55" fill="rgb(255, 220, 215)">.shopLogoText__6da15 {</text><rect x="49.61" y="2056" width="193.23" height="17" fill="rgb(103, 6, 12)" opacity="1"/><text x="49.61" y="2068.55" fill="rgb(255, 220, 215)">    margin-bottom: 2px;</text><rect x="32.8" y="2073" width="25.2" height="17" fill="rgb(103, 6, 12)" opacity="1"/><text x="32.8" y="2085.55" fill="rgb(255, 220, 215)">  }</text></g></svg>