<svg xmlns="http://www.w3.org/2000/svg" viewBox="0, 0, 737.71, 2109.45" font-family="ui-monospace, SFMono-Regular, SF Mono, Menlo, Consolas, Liberation Mono, monospace" font-size="14"><g fill="#D3D3D3"><rect x="0" y="0" width="737.71" height="2109.45" fill="rgb(22, 27, 34)"/><rect x="16" y="16" width="294.05" height="17" fill="rgb(3, 58, 22)" opacity="1"/><text x="16" y="28.55" fill="rgb(175, 245, 180)">.tryingOutAvatarDecoration_f526bf {</text><rect x="24.4" y="33" width="168.03" height="17" fill="rgb(3, 58, 22)" opacity="1"/><text x="24.4" y="45.55" fill="rgb(175, 245, 180)">&#x9;position: absolute;</text><rect x="24.4" y="50" width="92.42" height="17" fill="rgb(3, 58, 22)" opacity="1"/><text x="24.4" y="62.55" fill="rgb(175, 245, 180)">&#x9;bottom: 0;</text><rect x="16" y="67" width="8.4" height="17" fill="rgb(3, 58, 22)" opacity="1"/><text x="16" y="79.55" fill="rgb(175, 245, 180)">}</text><rect x="16" y="84" width="260.44" height="17" fill="rgb(3, 58, 22)" opacity="1"/><text x="16" y="96.55" fill="rgb(175, 245, 180)">.previewTitleContainer__89aa4 {</text><rect x="24.4" y="101" width="117.62" height="17" fill="rgb(3, 58, 22)" opacity="1"/><text x="24.4" y="113.55" fill="rgb(175, 245, 180)">&#x9;height: 40px;</text><rect x="24.4" y="118" width="126.02" height="17" fill="rgb(3, 58, 22)" opacity="1"/><text x="24.4" y="130.55" fill="rgb(175, 245, 180)">&#x9;display: flex;</text><rect x="24.4" y="135" width="268.84" height="17" fill="rgb(3, 58, 22)" opacity="1"/><text x="24.4" y="147.55" fill="rgb(175, 245, 180)">&#x9;justify-content: space-between;</text><rect x="24.4" y="152" width="176.43" height="17" fill="rgb(3, 58, 22)" opacity="1"/><text x="24.4" y="164.55" fill="rgb(175, 245, 180)">&#x9;align-items: center;</text><rect x="16" y="169" width="8.4" height="17" fill="rgb(3, 58, 22)" opacity="1"/><text x="16" y="181.55" fill="rgb(175, 245, 180)">}</text><rect x="16" y="186" width="184.83" height="17" fill="rgb(3, 58, 22)" opacity="1"/><text x="16" y="198.55" fill="rgb(175, 245, 180)">.previewTitle_bb7c50 {</text><rect x="24.4" y="203" width="151.22" height="17" fill="rgb(3, 58, 22)" opacity="1"/><text x="24.4" y="215.55" fill="rgb(175, 245, 180)">&#x9;margin-bottom: 0;</text><rect x="16" y="220" width="8.4" height="17" fill="rgb(3, 58, 22)" opacity="1"/><text x="16" y="232.55" fill="rgb(175, 245, 180)">}</text><text x="16" y="249.55">.heading__1a617 {</text><text x="24.4" y="266.55">&#x9;display: inline-flex;</text><text x="24.4" y="283.55">&#x9;align-items: center;</text><text x="24.4" y="300.55">&#x9;white-space: </text><rect x="133.62" y="288" width="67.21" height="17" fill="rgb(3, 58, 22)" opacity="1"/><text x="133.62" y="300.55" fill="rgb(175, 245, 180)">pre-wrap</text><text x="200.83" y="300.55">;</text><text x="16" y="317.55">}</text><rect x="16" y="322" width="151.22" height="17" fill="rgb(3, 58, 22)" opacity="1"/><text x="16" y="334.55" fill="rgb(175, 245, 180)">.shopLogo_f8bf08 {</text><rect x="24.4" y="339" width="126.02" height="17" fill="rgb(3, 58, 22)" opacity="1"/><text x="24.4" y="351.55" fill="rgb(175, 245, 180)">&#x9;display: flex;</text><rect x="24.4" y="356" width="84.01" height="17" fill="rgb(3, 58, 22)" opacity="1"/><text x="24.4" y="368.55" fill="rgb(175, 245, 180)">&#x9;gap: 8px;</text><rect x="24.4" y="373" width="176.43" height="17" fill="rgb(3, 58, 22)" opacity="1"/><text x="24.4" y="385.55" fill="rgb(175, 245, 180)">&#x9;align-items: center;</text><rect x="16" y="390" width="8.4" height="17" fill="rgb(3, 58, 22)" opacity="1"/><text x="16" y="402.55" fill="rgb(175, 245, 180)">}</text><rect x="16" y="407" width="184.83" height="17" fill="rgb(3, 58, 22)" opacity="1"/><text x="16" y="419.55" fill="rgb(175, 245, 180)">.shopLogoText_b52465 {</text><rect x="24.4" y="424" width="168.03" height="17" fill="rgb(3, 58, 22)" opacity="1"/><text x="24.4" y="436.55" fill="rgb(175, 245, 180)">&#x9;margin-bottom: 2px;</text><rect x="16" y="441" width="8.4" height="17" fill="rgb(3, 58, 22)" opacity="1"/><text x="16" y="453.55" fill="rgb(175, 245, 180)">}</text><rect x="16" y="458" width="168.03" height="17" fill="rgb(3, 58, 22)" opacity="1"/><text x="16" y="470.55" fill="rgb(175, 245, 180)">.heroBanner_d3ffc9 {</text><rect x="24.4" y="475" width="168.03" height="17" fill="rgb(3, 58, 22)" opacity="1"/><text x="24.4" y="487.55" fill="rgb(175, 245, 180)">&#x9;position: relative;</text><rect x="24.4" y="492" width="109.22" height="17" fill="rgb(3, 58, 22)" opacity="1"/><text x="24.4" y="504.55" fill="rgb(175, 245, 180)">&#x9;width: 100%;</text><rect x="24.4" y="509" width="151.22" height="17" fill="rgb(3, 58, 22)" opacity="1"/><text x="24.4" y="521.55" fill="rgb(175, 245, 180)">&#x9;min-width: 597px;</text><rect x="24.4" y="526" width="126.02" height="17" fill="rgb(3, 58, 22)" opacity="1"/><text x="24.4" y="538.55" fill="rgb(175, 245, 180)">&#x9;height: 300px;</text><rect x="24.4" y="543" width="705.71" height="17" fill="rgb(3, 58, 22)" opacity="1"/><text x="24.4" y="555.55" fill="rgb(175, 245, 180)">&#x9;background: center/cover no-repeat url(/assets/e67f00e8b56d263737a6.jpg),lightgray;</text><rect x="24.4" y="560" width="151.22" height="17" fill="rgb(3, 58, 22)" opacity="1"/><text x="24.4" y="572.55" fill="rgb(175, 245, 180)">&#x9;margin-top: 24px;</text><rect x="24.4" y="577" width="176.43" height="17" fill="rgb(3, 58, 22)" opacity="1"/><text x="24.4" y="589.55" fill="rgb(175, 245, 180)">&#x9;border-radius: 32px;</text><rect x="24.4" y="594" width="151.22" height="17" fill="rgb(3, 58, 22)" opacity="1"/><text x="24.4" y="606.55" fill="rgb(175, 245, 180)">&#x9;overflow: hidden;</text><rect x="16" y="611" width="8.4" height="17" fill="rgb(3, 58, 22)" opacity="1"/><text x="16" y="623.55" fill="rgb(175, 245, 180)">}</text><rect x="16" y="628" width="159.63" height="17" fill="rgb(3, 58, 22)" opacity="1"/><text x="16" y="640.55" fill="rgb(175, 245, 180)">.bannerArt__63594 {</text><rect x="24.4" y="645" width="168.03" height="17" fill="rgb(3, 58, 22)" opacity="1"/><text x="24.4" y="657.55" fill="rgb(175, 245, 180)">&#x9;position: absolute;</text><rect x="24.4" y="662" width="67.21" height="17" fill="rgb(3, 58, 22)" opacity="1"/><text x="24.4" y="674.55" fill="rgb(175, 245, 180)">&#x9;top: 0;</text><rect x="24.4" y="679" width="109.22" height="17" fill="rgb(3, 58, 22)" opacity="1"/><text x="24.4" y="691.55" fill="rgb(175, 245, 180)">&#x9;left: 510px;</text><rect x="16" y="696" width="8.4" height="17" fill="rgb(3, 58, 22)" opacity="1"/><text x="16" y="708.55" fill="rgb(175, 245, 180)">}</text><rect x="16" y="713" width="168.03" height="17" fill="rgb(3, 58, 22)" opacity="1"/><text x="16" y="725.55" fill="rgb(175, 245, 180)">.bannerGrid_c6a4a0 {</text><rect x="24.4" y="730" width="168.03" height="17" fill="rgb(3, 58, 22)" opacity="1"/><text x="24.4" y="742.55" fill="rgb(175, 245, 180)">&#x9;position: absolute;</text><rect x="24.4" y="747" width="100.82" height="17" fill="rgb(3, 58, 22)" opacity="1"/><text x="24.4" y="759.55" fill="rgb(175, 245, 180)">&#x9;top: -77px;</text><rect x="24.4" y="764" width="75.61" height="17" fill="rgb(3, 58, 22)" opacity="1"/><text x="24.4" y="776.55" fill="rgb(175, 245, 180)">&#x9;left: 0;</text><rect x="24.4" y="781" width="117.62" height="17" fill="rgb(3, 58, 22)" opacity="1"/><text x="24.4" y="793.55" fill="rgb(175, 245, 180)">&#x9;width: 402px;</text><rect x="24.4" y="798" width="126.02" height="17" fill="rgb(3, 58, 22)" opacity="1"/><text x="24.4" y="810.55" fill="rgb(175, 245, 180)">&#x9;height: 484px;</text><rect x="16" y="815" width="8.4" height="17" fill="rgb(3, 58, 22)" opacity="1"/><text x="16" y="827.55" fill="rgb(175, 245, 180)">}</text><rect x="16" y="832" width="201.63" height="17" fill="rgb(3, 58, 22)" opacity="1"/><text x="16" y="844.55" fill="rgb(175, 245, 180)">.bannerGridSmol_af8290 {</text><rect x="24.4" y="849" width="168.03" height="17" fill="rgb(3, 58, 22)" opacity="1"/><text x="24.4" y="861.55" fill="rgb(175, 245, 180)">&#x9;position: absolute;</text><rect x="24.4" y="866" width="109.22" height="17" fill="rgb(3, 58, 22)" opacity="1"/><text x="24.4" y="878.55" fill="rgb(175, 245, 180)">&#x9;left: 452px;</text><rect x="24.4" y="883" width="100.82" height="17" fill="rgb(3, 58, 22)" opacity="1"/><text x="24.4" y="895.55" fill="rgb(175, 245, 180)">&#x9;top: 116px;</text><rect x="24.4" y="900" width="109.22" height="17" fill="rgb(3, 58, 22)" opacity="1"/><text x="24.4" y="912.55" fill="rgb(175, 245, 180)">&#x9;width: 85px;</text><rect x="24.4" y="917" width="117.62" height="17" fill="rgb(3, 58, 22)" opacity="1"/><text x="24.4" y="929.55" fill="rgb(175, 245, 180)">&#x9;height: 60px;</text><rect x="16" y="934" width="8.4" height="17" fill="rgb(3, 58, 22)" opacity="1"/><text x="16" y="946.55" fill="rgb(175, 245, 180)">}</text><rect x="16" y="951" width="218.44" height="17" fill="rgb(3, 58, 22)" opacity="1"/><text x="16" y="963.55" fill="rgb(175, 245, 180)">.bannerGridMedium__86b6f {</text><rect x="24.4" y="968" width="168.03" height="17" fill="rgb(3, 58, 22)" opacity="1"/><text x="24.4" y="980.55" fill="rgb(175, 245, 180)">&#x9;position: absolute;</text><rect x="24.4" y="985" width="109.22" height="17" fill="rgb(3, 58, 22)" opacity="1"/><text x="24.4" y="997.55" fill="rgb(175, 245, 180)">&#x9;left: 405px;</text><rect x="24.4" y="1002" width="100.82" height="17" fill="rgb(3, 58, 22)" opacity="1"/><text x="24.4" y="1014.55" fill="rgb(175, 245, 180)">&#x9;top: 206px;</text><rect x="24.4" y="1019" width="117.62" height="17" fill="rgb(3, 58, 22)" opacity="1"/><text x="24.4" y="1031.55" fill="rgb(175, 245, 180)">&#x9;width: 178px;</text><rect x="24.4" y="1036" width="126.02" height="17" fill="rgb(3, 58, 22)" opacity="1"/><text x="24.4" y="1048.55" fill="rgb(175, 245, 180)">&#x9;height: 106px;</text><rect x="16" y="1053" width="8.4" height="17" fill="rgb(3, 58, 22)" opacity="1"/><text x="16" y="1065.55" fill="rgb(175, 245, 180)">}</text><rect x="16" y="1070" width="168.03" height="17" fill="rgb(3, 58, 22)" opacity="1"/><text x="16" y="1082.55" fill="rgb(175, 245, 180)">.bannerHand__22b18 {</text><rect x="24.4" y="1087" width="168.03" height="17" fill="rgb(3, 58, 22)" opacity="1"/><text x="24.4" y="1099.55" fill="rgb(175, 245, 180)">&#x9;position: absolute;</text><rect x="24.4" y="1104" width="92.42" height="17" fill="rgb(3, 58, 22)" opacity="1"/><text x="24.4" y="1116.55" fill="rgb(175, 245, 180)">&#x9;top: 27px;</text><rect x="24.4" y="1121" width="109.22" height="17" fill="rgb(3, 58, 22)" opacity="1"/><text x="24.4" y="1133.55" fill="rgb(175, 245, 180)">&#x9;left: 264px;</text><rect x="24.4" y="1138" width="117.62" height="17" fill="rgb(3, 58, 22)" opacity="1"/><text x="24.4" y="1150.55" fill="rgb(175, 245, 180)">&#x9;width: 265px;</text><rect x="24.4" y="1155" width="126.02" height="17" fill="rgb(3, 58, 22)" opacity="1"/><text x="24.4" y="1167.55" fill="rgb(175, 245, 180)">&#x9;height: 238px;</text><rect x="16" y="1172" width="8.4" height="17" fill="rgb(3, 58, 22)" opacity="1"/><text x="16" y="1184.55" fill="rgb(175, 245, 180)">}</text><rect x="16" y="1189" width="210.03" height="17" fill="rgb(3, 58, 22)" opacity="1"/><text x="16" y="1201.55" fill="rgb(175, 245, 180)">.heroDescription__4f6a2 {</text><rect x="24.4" y="1206" width="159.63" height="17" fill="rgb(3, 58, 22)" opacity="1"/><text x="24.4" y="1218.55" fill="rgb(175, 245, 180)">&#x9;margin-left: 58px;</text><rect x="24.4" y="1223" width="117.62" height="17" fill="rgb(3, 58, 22)" opacity="1"/><text x="24.4" y="1235.55" fill="rgb(175, 245, 180)">&#x9;width: 480px;</text><rect x="24.4" y="1240" width="117.62" height="17" fill="rgb(3, 58, 22)" opacity="1"/><text x="24.4" y="1252.55" fill="rgb(175, 245, 180)">&#x9;height: 100%;</text><rect x="24.4" y="1257" width="126.02" height="17" fill="rgb(3, 58, 22)" opacity="1"/><text x="24.4" y="1269.55" fill="rgb(175, 245, 180)">&#x9;display: flex;</text><rect x="24.4" y="1274" width="201.63" height="17" fill="rgb(3, 58, 22)" opacity="1"/><text x="24.4" y="1286.55" fill="rgb(175, 245, 180)">&#x9;flex-direction: column;</text><rect x="24.4" y="1291" width="210.03" height="17" fill="rgb(3, 58, 22)" opacity="1"/><text x="24.4" y="1303.55" fill="rgb(175, 245, 180)">&#x9;justify-content: center;</text><rect x="16" y="1308" width="8.4" height="17" fill="rgb(3, 58, 22)" opacity="1"/><text x="16" y="1320.55" fill="rgb(175, 245, 180)">}</text><rect x="16" y="1325" width="176.43" height="17" fill="rgb(3, 58, 22)" opacity="1"/><text x="16" y="1337.55" fill="rgb(175, 245, 180)">.bannerTitle_faef60 {</text><rect x="24.4" y="1342" width="285.65" height="17" fill="rgb(3, 58, 22)" opacity="1"/><text x="24.4" y="1354.55" fill="rgb(175, 245, 180)">&#x9;font-family: var(--font-primary);</text><rect x="16" y="1359" width="8.4" height="17" fill="rgb(3, 58, 22)" opacity="1"/><text x="16" y="1371.55" fill="rgb(175, 245, 180)">}</text><rect x="16" y="1376" width="184.83" height="17" fill="rgb(3, 58, 22)" opacity="1"/><text x="16" y="1388.55" fill="rgb(175, 245, 180)">.heroSubtitle_aefcb1 {</text><rect x="24.4" y="1393" width="151.22" height="17" fill="rgb(3, 58, 22)" opacity="1"/><text x="24.4" y="1405.55" fill="rgb(175, 245, 180)">&#x9;margin-top: 16px;</text><rect x="16" y="1410" width="8.4" height="17" fill="rgb(3, 58, 22)" opacity="1"/><text x="16" y="1422.55" fill="rgb(175, 245, 180)">}</text><rect x="16" y="1427" width="218.44" height="17" fill="rgb(3, 58, 22)" opacity="1"/><text x="16" y="1439.55" fill="rgb(175, 245, 180)">@media(max-width:1372px) {</text><rect x="24.4" y="1444" width="470.48" height="17" fill="rgb(3, 58, 22)" opacity="1"/><text x="24.4" y="1456.55" fill="rgb(175, 245, 180)">&#x9;.heroBannerWithSidebar_e6b2f9 .heroDescription__4f6a2 {</text><rect x="32.8" y="1461" width="168.03" height="17" fill="rgb(3, 58, 22)" opacity="1"/><text x="32.8" y="1473.55" fill="rgb(175, 245, 180)">&#x9;&#x9;margin-left: 36px;</text><rect x="24.4" y="1478" width="16.8" height="17" fill="rgb(3, 58, 22)" opacity="1"/><text x="24.4" y="1490.55" fill="rgb(175, 245, 180)">&#x9;}</text><rect x="24.4" y="1495" width="420.07" height="17" fill="rgb(3, 58, 22)" opacity="1"/><text x="24.4" y="1507.55" fill="rgb(175, 245, 180)">&#x9;.heroBannerWithSidebar_e6b2f9 .bannerArt__63594 {</text><rect x="32.8" y="1512" width="117.62" height="17" fill="rgb(3, 58, 22)" opacity="1"/><text x="32.8" y="1524.55" fill="rgb(175, 245, 180)">&#x9;&#x9;left: 430px;</text><rect x="24.4" y="1529" width="16.8" height="17" fill="rgb(3, 58, 22)" opacity="1"/><text x="24.4" y="1541.55" fill="rgb(175, 245, 180)">&#x9;}</text><rect x="16" y="1546" width="8.4" height="17" fill="rgb(3, 58, 22)" opacity="1"/><text x="16" y="1558.55" fill="rgb(175, 245, 180)">}</text><rect x="16" y="1563" width="218.44" height="17" fill="rgb(3, 58, 22)" opacity="1"/><text x="16" y="1575.55" fill="rgb(175, 245, 180)">@media(max-width:1152px) {</text><rect x="24.4" y="1580" width="470.48" height="17" fill="rgb(3, 58, 22)" opacity="1"/><text x="24.4" y="1592.55" fill="rgb(175, 245, 180)">&#x9;.heroBannerWithSidebar_e6b2f9 .heroDescription__4f6a2 {</text><rect x="32.8" y="1597" width="168.03" height="17" fill="rgb(3, 58, 22)" opacity="1"/><text x="32.8" y="1609.55" fill="rgb(175, 245, 180)">&#x9;&#x9;margin-left: 36px;</text><rect x="32.8" y="1614" width="126.02" height="17" fill="rgb(3, 58, 22)" opacity="1"/><text x="32.8" y="1626.55" fill="rgb(175, 245, 180)">&#x9;&#x9;width: 280px;</text><rect x="24.4" y="1631" width="16.8" height="17" fill="rgb(3, 58, 22)" opacity="1"/><text x="24.4" y="1643.55" fill="rgb(175, 245, 180)">&#x9;}</text><rect x="24.4" y="1648" width="420.07" height="17" fill="rgb(3, 58, 22)" opacity="1"/><text x="24.4" y="1660.55" fill="rgb(175, 245, 180)">&#x9;.heroBannerWithSidebar_e6b2f9 .bannerArt__63594 {</text><rect x="32.8" y="1665" width="117.62" height="17" fill="rgb(3, 58, 22)" opacity="1"/><text x="32.8" y="1677.55" fill="rgb(175, 245, 180)">&#x9;&#x9;left: 210px;</text><rect x="24.4" y="1682" width="16.8" height="17" fill="rgb(3, 58, 22)" opacity="1"/><text x="24.4" y="1694.55" fill="rgb(175, 245, 180)">&#x9;}</text><rect x="16" y="1699" width="8.4" height="17" fill="rgb(3, 58, 22)" opacity="1"/><text x="16" y="1711.55" fill="rgb(175, 245, 180)">}</text><rect x="16" y="1716" width="218.44" height="17" fill="rgb(3, 58, 22)" opacity="1"/><text x="16" y="1728.55" fill="rgb(175, 245, 180)">@media(max-width:1060px) {</text><rect x="24.4" y="1733" width="462.08" height="17" fill="rgb(3, 58, 22)" opacity="1"/><text x="24.4" y="1745.55" fill="rgb(175, 245, 180)">&#x9;.heroBannerFullScreen_ee783c .heroDescription__4f6a2 {</text><rect x="32.8" y="1750" width="168.03" height="17" fill="rgb(3, 58, 22)" opacity="1"/><text x="32.8" y="1762.55" fill="rgb(175, 245, 180)">&#x9;&#x9;margin-left: 36px;</text><rect x="24.4" y="1767" width="16.8" height="17" fill="rgb(3, 58, 22)" opacity="1"/><text x="24.4" y="1779.55" fill="rgb(175, 245, 180)">&#x9;}</text><rect x="24.4" y="1784" width="411.67" height="17" fill="rgb(3, 58, 22)" opacity="1"/><text x="24.4" y="1796.55" fill="rgb(175, 245, 180)">&#x9;.heroBannerFullScreen_ee783c .bannerArt__63594 {</text><rect x="32.8" y="1801" width="117.62" height="17" fill="rgb(3, 58, 22)" opacity="1"/><text x="32.8" y="1813.55" fill="rgb(175, 245, 180)">&#x9;&#x9;left: 430px;</text><rect x="24.4" y="1818" width="16.8" height="17" fill="rgb(3, 58, 22)" opacity="1"/><text x="24.4" y="1830.55" fill="rgb(175, 245, 180)">&#x9;}</text><rect x="16" y="1835" width="8.4" height="17" fill="rgb(3, 58, 22)" opacity="1"/><text x="16" y="1847.55" fill="rgb(175, 245, 180)">}</text><rect x="16" y="1852" width="252.04" height="17" fill="rgb(3, 58, 22)" opacity="1"/><text x="16" y="1864.55" fill="rgb(175, 245, 180)">.winterCategoryBanner_d13ac3 {</text><rect x="24.4" y="1869" width="243.64" height="17" fill="rgb(3, 58, 22)" opacity="1"/><text x="24.4" y="1881.55" fill="rgb(175, 245, 180)">&#x9;background-position: center;</text><rect x="16" y="1886" width="8.4" height="17" fill="rgb(3, 58, 22)" opacity="1"/><text x="16" y="1898.55" fill="rgb(175, 245, 180)">}</text><rect x="16" y="1903" width="126.02" height="17" fill="rgb(103, 6, 12)" opacity="1"/><text x="16" y="1915.55" fill="rgb(255, 220, 215)">.price_ed9315 {</text><rect x="24.4" y="1920" width="151.22" height="17" fill="rgb(103, 6, 12)" opacity="1"/><text x="24.4" y="1932.55" fill="rgb(255, 220, 215)">&#x9;font-weight: 600;</text><rect x="16" y="1937" width="8.4" height="17" fill="rgb(103, 6, 12)" opacity="1"/><text x="16" y="1949.55" fill="rgb(255, 220, 215)">}</text><rect x="16" y="1954" width="151.22" height="17" fill="rgb(103, 6, 12)" opacity="1"/><text x="16" y="1966.55" fill="rgb(255, 220, 215)">.shopLogo__05413 {</text><rect x="24.4" y="1971" width="126.02" height="17" fill="rgb(103, 6, 12)" opacity="1"/><text x="24.4" y="1983.55" fill="rgb(255, 220, 215)">&#x9;display: flex;</text><rect x="24.4" y="1988" width="84.01" height="17" fill="rgb(103, 6, 12)" opacity="1"/><text x="24.4" y="2000.55" fill="rgb(255, 220, 215)">&#x9;gap: 8px;</text><rect x="24.4" y="2005" width="176.43" height="17" fill="rgb(103, 6, 12)" opacity="1"/><text x="24.4" y="2017.55" fill="rgb(255, 220, 215)">&#x9;align-items: center;</text><rect x="16" y="2022" width="8.4" height="17" fill="rgb(103, 6, 12)" opacity="1"/><text x="16" y="2034.55" fill="rgb(255, 220, 215)">}</text><rect x="16" y="2039" width="184.83" height="17" fill="rgb(103, 6, 12)" opacity="1"/><text x="16" y="2051.55" fill="rgb(255, 220, 215)">.shopLogoText__6da15 {</text><rect x="24.4" y="2056" width="168.03" height="17" fill="rgb(103, 6, 12)" opacity="1"/><text x="24.4" y="2068.55" fill="rgb(255, 220, 215)">&#x9;margin-bottom: 2px;</text><rect x="16" y="2073" width="8.4" height="17" fill="rgb(103, 6, 12)" opacity="1"/><text x="16" y="2085.55" fill="rgb(255, 220, 215)">}</text></g></svg>